Coordinates
version=1
nRows=13
nColumns=34
inDegrees=yes

Units are S.I. units (second, meters, Newtons, ...)
If the header above contains a line with 'inDegrees', this indicates whether rotational values are in degrees (yes) or radians (no).

endheader
time	pelvis_tilt	pelvis_list	pelvis_rotation	pelvis_tx	pelvis_ty	pelvis_tz	hip_flexion_r	hip_adduction_r	hip_rotation_r	knee_angle_r	ankle_angle_r	subtalar_angle_r	mtp_angle_r	hip_flexion_l	hip_adduction_l	hip_rotation_l	knee_angle_l	ankle_angle_l	subtalar_angle_l	mtp_angle_l	lumbar_extension	lumbar_bending	lumbar_rotation	arm_flex_r	arm_add_r	arm_rot_r	elbow_flex_r	pro_sup_r	arm_flex_l	arm_add_l	arm_rot_l	elbow_flex_l	pro_sup_l
      0.00000000	      0.70567933	     -1.34333307	      1.33750015	     -0.00885864	      1.13325629	     -0.08907670	     -5.63308292	      2.00069106	     -5.71477843	      6.80148497	      8.77843616	     -5.83475378	      0.00000000	     -8.33101539	     -3.01584234	    -10.08935889	      1.29259891	      9.91543754	     -4.42370120	      0.00000000	      1.39046893	      3.14493088	     -2.50333560	     -9.15737356	    -14.02726356	      8.00056080	     93.20898944	     97.49134070	     -5.97460053	     -8.95159523	     21.16309206	     29.26697564	     62.10862629
      0.01666670	     -0.91209076	     -0.53259276	      1.05033361	     -0.00694054	      1.13242654	     -0.09039854	     -3.71989581	      1.26694958	     -5.70974048	      6.66632474	     12.29851057	     -3.72756154	      0.00000000	     -5.60100076	     -1.45713488	    -12.95214653	      2.04493681	     11.45179709	     -1.75009955	      0.00000000	      3.67195350	      2.50470070	     -1.99158386	     -8.57547761	    -13.73612143	      8.37604901	     88.66303876	     96.82940060	     -6.28192456	     -8.12070173	     18.80217814	     26.39670980	     62.91051573
      0.03333330	     -1.47632316	      0.53642627	      0.72790669	     -0.00732643	      1.13184396	     -0.09013397	     -3.45839991	      0.11213422	     -6.36337385	      5.63951288	     12.47571119	     -2.54886753	      0.00000000	     -4.91732961	     -0.26428005	    -14.93180958	      2.33612874	     11.48426868	     -0.28991414	      0.00000000	      4.63053686	      1.00147391	     -1.49415552	     -8.55203635	    -13.41041970	      8.50131092	     82.88513119	     96.18233086	     -6.13609472	     -8.33317563	     17.08271516	     24.80486463	     64.02228072
      0.05000000	     -1.22839340	      1.18928793	      0.51430899	     -0.00916779	      1.13426590	     -0.08896508	     -4.16054420	     -0.55748505	     -6.78503076	      4.82535225	     12.77867252	     -1.69394365	      0.00000000	     -5.55238118	      0.57225810	    -15.78524517	      1.78002050	     11.13601870	      0.06684316	      0.00000000	      4.37527255	      0.08516974	     -0.80453515	     -8.33579243	    -13.29851055	      9.23561593	     76.06880918	     95.34179353	     -5.74307189	     -8.53411240	     15.98406408	     24.13156270	     65.43967964
      0.06666670	     -1.04209517	      1.54049114	      0.14449564	     -0.00509951	      1.13687338	     -0.08937364	     -4.82113966	     -0.86062190	     -6.71103866	      3.97379526	     12.75964010	     -1.00895774	      0.00000000	     -6.12770288	      1.10495297	    -16.39244914	      1.38293978	     10.59711388	      0.00441217	      0.00000000	      4.09073342	     -0.32098674	      0.15216075	     -8.61715952	    -12.97846954	      9.54224293	     69.63987941	     94.55731294	     -5.36678596	     -8.39892532	     15.38083271	     23.80757477	     66.46086987
      0.08333330	     -0.74509204	      1.77103205	     -0.07348208	     -0.00445212	      1.13232547	     -0.09140099	     -5.47747359	     -1.14576179	     -6.84530090	      3.54567570	     12.61230467	     -0.76489591	      0.00000000	     -6.67615815	      1.54494155	    -16.74522020	      1.05667142	     10.49579207	     -0.29630988	      0.00000000	      3.74026823	     -0.48640800	      1.17870322	     -9.15938859	    -12.87847273	      9.39905445	     63.44002465	     93.84604247	     -4.72287298	     -8.25708060	     14.90207480	     23.92444301	     67.19756438
      0.10000000	     -0.49718414	      1.84088593	     -0.13646577	     -0.00605649	      1.13079454	     -0.09031048	     -5.90756698	     -1.20818997	     -6.72235841	      3.16721361	     12.55346366	     -0.82242311	      0.00000000	     -7.04968494	      1.72491016	    -16.68984095	      0.75286479	     10.42125549	     -0.51591028	      0.00000000	      3.36949026	     -0.50409041	      1.82762904	     -9.12616593	    -12.36052438	      9.14396026	     56.69778964	     93.05463646	     -4.11772469	     -8.16662735	     14.46885644	     23.83583492	     67.94137745
      0.11666670	     -0.24907781	      1.86261628	     -0.14112603	     -0.00553410	      1.13115597	     -0.09003218	     -6.35025352	     -1.20970393	     -6.52514707	      2.87154252	     12.43751800	     -0.90878143	      0.00000000	     -7.38439159	      1.78331279	    -16.47125746	      0.59846801	     10.25516610	     -0.74857217	      0.00000000	      3.08771169	     -0.43489002	      2.12287361	     -8.76930043	    -11.63692186	      8.93203101	     50.03768688	     92.21138255	     -3.72293846	     -8.18323853	     14.06276355	     23.70492574	     68.70802506
      0.13333330	     -0.22828876	      1.86415925	     -0.15488966	     -0.00897021	      1.13526007	     -0.08867036	     -6.36767563	     -1.14729724	     -6.39321435	      2.64332451	     12.21875480	     -1.10039309	      0.00000000	     -7.40110028	      1.76677319	    -16.05244996	      0.47925886	     10.22180040	     -0.88203470	      0.00000000	      2.97563516	     -0.35448929	      1.97356542	     -7.85966725	    -10.80433718	      9.08010261	     43.10668045	     91.13938318	     -3.45774359	     -8.23363030	     13.58948668	     23.31452302	     69.72292540
      0.15000000	     -0.03510372	      1.79539293	     -0.18490374	     -0.00947309	      1.13603148	     -0.08796862	     -6.57014172	     -1.00505429	     -6.13508934	      2.39135999	     12.09423513	     -1.21198778	      0.00000000	     -7.54701940	      1.63368380	    -15.90427012	      0.34767923	      9.97865628	     -1.02921211	      0.00000000	      2.59615233	     -0.19670921	      2.03096376	     -7.09899297	    -10.12300206	      9.15148304	     36.78524610	     90.10212228	     -2.99316505	     -8.36692758	     13.08237096	     23.21137499	     70.62128303
      0.16666670	      0.17741325	      1.83635650	     -0.42672805	     -0.01004436	      1.13867946	     -0.08686929	     -6.70380878	     -1.01403258	     -5.78131882	      2.31335655	     12.10643499	     -0.99587388	      0.00000000	     -7.81384601	      1.65585370	    -16.01985327	      0.14355545	      9.56417634	     -1.15199060	      0.00000000	      2.06612081	     -0.11772956	      3.04487395	     -7.43578445	     -9.77630265	      9.02211025	     32.77130458	     89.70962438	     -2.33415482	     -8.38216529	     12.82581519	     23.49815491	     70.89079469
      0.18333330	      0.20945800	      1.80183416	     -0.50177319	     -0.01094870	      1.14100370	     -0.08628415	     -6.68373038	     -0.90738065	     -5.60252466	      2.16291560	     12.13004963	     -1.02159630	      0.00000000	     -7.78024989	      1.53788929	    -16.01402129	      0.20435900	      9.08132305	     -1.20607914	      0.00000000	      1.93524836	      0.05978589	      2.45204070	     -6.18387338	     -8.88608474	      8.09609921	     26.82175200	     88.77313293	     -2.38186899	     -8.43456268	     12.70386407	     22.93574228	     71.50307149
      0.20000000	      0.30671315	      1.80547414	     -0.73936447	     -0.01428201	      1.14426122	     -0.08411973	     -6.69463534	     -0.83579237	     -5.38743774	      1.98663343	     11.80710400	     -0.90186521	      0.00000000	     -7.95478965	      1.53279340	    -16.07662036	      0.00000000	      8.57691831	     -1.26534911	      0.00000000	      1.47091216	      0.09536577	      3.07037641	     -6.05626454	     -8.63425772	      7.72671939	     23.24242191	     88.27020838	     -1.88440168	     -8.53773361	     12.45015134	     23.08288314	     71.80239549
